<svg width="40" height="40" viewBox="0 0 40 40" fill="none" xmlns="http://www.w3.org/2000/svg">
<mask id="mask0" mask-type="alpha" maskUnits="userSpaceOnUse" x="0" y="0" width="40" height="40">
<rect width="40" height="40" fill="black"/>
</mask>
<g mask="url(#mask0)">
<path d="M33.3497 6.65024C32.2499 5.55015 30.9248 5 29.3754 5H10.625C9.07568 5 7.75058 5.55015 6.65026 6.65024C5.55016 7.75053 5 9.07555 5 10.625V29.3748C5 30.9241 5.55016 32.2493 6.65026 33.3496C7.75058 34.4499 9.07568 35 10.625 35H29.3752C30.9246 35 32.2497 34.4499 33.3495 33.3496C34.4498 32.2493 35 30.9242 35 29.3748V10.625C34.9999 9.07555 34.4498 7.75033 33.3497 6.65024ZM14.1407 30.1169H9.62885V16.5623H14.1407V30.1169ZM13.7307 14.0527C13.2621 14.502 12.6435 14.7266 11.8752 14.7266H11.8555C11.1134 14.7266 10.5113 14.502 10.049 14.0527C9.5865 13.6035 9.35541 13.0469 9.35541 12.3829C9.35541 11.7058 9.59321 11.1458 10.0683 10.703C10.5438 10.2603 11.1589 10.0389 11.914 10.0389C12.6692 10.0389 13.2747 10.2603 13.7305 10.703C14.1862 11.1458 14.4207 11.7058 14.4336 12.3829C14.4335 13.0466 14.1994 13.6032 13.7307 14.0527ZM30.3714 30.1169H25.8596V22.871C25.8596 20.827 25.1046 19.8047 23.5941 19.8047C23.0212 19.8047 22.5392 19.9642 22.1487 20.2832C21.7577 20.6021 21.4649 20.9895 21.2698 21.4456C21.1785 21.6797 21.1331 22.0442 21.1331 22.5388V30.1169H16.6213C16.6603 21.94 16.6603 17.4216 16.6213 16.5621H21.1331V18.4758C22.0817 16.9926 23.4288 16.2495 25.1762 16.2495C26.7387 16.2495 27.9954 16.7639 28.9459 17.7924C29.8965 18.8211 30.3716 20.3382 30.3716 22.3429V30.1169H30.3714Z" fill="white"/>
</g>
</svg>
