<svg width="40" height="40" viewBox="0 0 40 40" fill="none" xmlns="http://www.w3.org/2000/svg">
<mask id="mask0" mask-type="alpha" maskUnits="userSpaceOnUse" x="0" y="0" width="40" height="40">
<rect width="40" height="40" fill="black"/>
</mask>
<g mask="url(#mask0)">
<path d="M34.1073 23.1662C36.2776 13.4147 27.7336 4.55591 17.6999 6.2565C12.2528 2.87655 5 6.696 5 13.1762C5 14.6833 5.41584 16.0942 6.13887 17.3103C4.12212 27.0843 12.7361 35.8157 22.7611 33.999C29.8478 37.7461 37.6788 30.2732 34.1073 23.1662ZM24.5693 29.0471C21.9369 30.1296 17.605 30.1359 14.9838 28.7637C11.2463 26.7709 10.5819 22.2847 13.8062 22.2847C16.2363 22.2847 15.4671 25.1178 17.9209 26.2727C19.0473 26.7934 21.4686 26.8471 22.876 25.8981C24.2658 24.9679 24.1385 23.5046 23.383 22.8054C21.3812 20.9575 15.6532 21.6916 13.0345 18.4565C11.8969 17.0531 11.6821 14.5771 13.0807 12.7817C15.5183 9.64518 22.6712 9.45415 25.7469 11.8227C28.5865 14.0203 27.8198 16.937 25.5283 16.937C22.7723 16.937 24.2209 13.331 19.7716 13.331C16.546 13.331 15.2773 15.6247 17.5488 16.741C20.6282 18.2705 28.4754 17.7598 28.4754 23.7368C28.4692 26.224 26.9444 28.0782 24.5693 29.0471Z" fill="white"/>
</g>
</svg>
