<svg width="40" height="40" viewBox="0 0 40 40" fill="none" xmlns="http://www.w3.org/2000/svg">
<mask id="mask0" mask-type="alpha" maskUnits="userSpaceOnUse" x="0" y="0" width="40" height="40">
<rect width="40" height="40" fill="black"/>
</mask>
<g mask="url(#mask0)">
<path d="M35 20C35 11.7148 28.2852 5 20 5C11.7148 5 5 11.7148 5 20C5 28.2852 11.7148 35 20 35C20.0879 35 20.1758 35 20.2637 34.9941V23.3223H17.041V19.5664H20.2637V16.8008C20.2637 13.5957 22.2207 11.8496 25.0801 11.8496C26.4512 11.8496 27.6289 11.9492 27.9688 11.9961V15.3477H26C24.4473 15.3477 24.1426 16.0859 24.1426 17.1699V19.5605H27.8633L27.377 23.3164H24.1426V34.4199C30.4121 32.6211 35 26.8496 35 20Z" fill="white"/>
</g>
</svg>
