<svg width="162" height="43" viewBox="0 0 162 43" fill="none" xmlns="http://www.w3.org/2000/svg">
<path d="M32.7617 31.8358C31.8438 33.2168 30.7274 34.4295 29.3794 35.4316C28.0315 36.4337 26.4685 37.2 24.6782 37.6716C22.8878 38.139 20.8866 38.2863 18.6786 38.0295C16.4748 37.7726 14.0973 37.0821 11.5874 35.8568C10.0824 35.12 8.65174 34.3537 7.29966 33.5663C5.94759 32.7789 4.74023 32.021 3.68999 31.3263C2.48677 30.5305 1.41173 29.6926 0.468994 28.8378C6.37761 24.6483 12.2862 20.4588 18.199 16.2651C19.0259 16.7536 19.9149 17.2462 20.8576 17.7262C21.6846 18.1473 22.6315 18.602 23.6941 19.0567C24.7567 19.5115 25.8814 19.9494 27.064 20.3452C29.0321 21.0104 30.5744 21.6336 31.728 22.362C32.8816 23.0862 33.6755 23.882 34.1262 24.8168C34.5727 25.7473 34.6926 26.7957 34.4652 27.9789C34.2337 29.1663 33.6796 30.4547 32.7617 31.8358ZM16.3673 31.0736C17.7028 31.6758 18.9763 31.84 20.163 31.6084C21.3538 31.3768 22.4123 30.6989 23.3675 29.6126C24.3226 28.5263 24.6782 27.6168 24.459 26.8884C24.2358 26.1557 23.5287 25.5915 22.3131 25.1157C21.8872 24.9473 21.4572 24.7747 21.0313 24.5936C19.0094 26.5347 16.9833 28.4799 14.9614 30.421C15.4287 30.6442 15.8959 30.8631 16.3673 31.0736Z" fill="#FF422A"/>
<path d="M55.8798 21.0273C55.8715 21.0484 55.8467 21.3473 55.8053 21.9242C55.764 22.501 55.7144 23.2589 55.6689 24.2063C55.6193 25.1495 55.5779 26.2274 55.549 27.4358C55.52 28.6484 55.5076 29.8821 55.5118 31.1411C55.5242 34.1306 55.6482 37.5369 55.9749 41.3812C52.3404 41.9117 48.7018 42.2864 45.0673 42.438C45.212 41.4527 45.365 40.4717 45.5262 39.4948C43.9468 39.5748 42.3673 39.6127 40.7878 39.6001C40.0931 40.5601 39.3861 41.5159 38.6749 42.4675C35.0404 42.3412 31.4018 41.9622 27.7673 41.2633C34.3416 35.5622 40.3619 29.2969 45.8322 22.5768C49.1814 22.3284 52.5306 21.7852 55.8798 21.0273ZM46.4194 34.8169C46.7626 33.0737 47.1264 31.339 47.5192 29.6127C46.3697 31.4064 45.1955 33.1832 43.9964 34.9432C44.8027 34.918 45.6089 34.8716 46.4194 34.8169Z" fill="#FF422A"/>
<path d="M71.5258 31.276C74.5648 30.4507 77.608 29.5665 80.6471 28.6696C80.5727 31.1539 80.4941 33.6381 80.4197 36.1265C73.0225 38.0128 65.6254 39.8234 58.2283 41.0318C58.2407 40.9897 58.2489 40.9476 58.2614 40.9055C58.8237 38.6276 59.3901 36.3497 59.9525 34.0718C63.5539 30.737 66.9072 27.2044 70.0083 23.5328C67.5481 24.3075 65.0879 25.0317 62.6277 25.6801C63.1859 23.3559 63.7441 21.0275 64.2981 18.7032C69.8139 16.939 75.3298 14.7622 80.8456 12.5264C80.7629 15.0106 80.676 17.4906 80.5933 19.9748C77.823 23.8401 74.8005 27.6254 71.5258 31.276Z" fill="#FF422A"/>
<path d="M99.0257 5.38525C99.0299 5.41052 99.1787 5.75578 99.4806 6.42947C99.7824 7.10316 100.183 7.98316 100.688 9.08633C101.192 10.1853 101.779 11.44 102.458 12.8548C103.136 14.2695 103.839 15.7137 104.575 17.1874C106.315 20.6864 108.387 24.6906 110.888 29.2507C107.254 29.8022 103.615 30.5096 99.9809 31.3096C99.5632 30.1728 99.158 29.0401 98.757 27.9117C97.1775 28.2907 95.598 28.6865 94.0185 29.0949C93.882 30.3286 93.7415 31.5623 93.5885 32.7959C89.954 33.6802 86.3154 34.6191 82.6809 35.5539C85.3313 26.9391 87.4318 18.1601 88.9823 9.22949C92.3232 7.8779 95.6765 6.57263 99.0257 5.38525ZM96.9583 22.4843C96.2926 20.4632 95.6517 18.4506 95.0315 16.4506C94.8909 18.6948 94.7255 20.9348 94.5353 23.1664C95.3416 22.9348 96.152 22.7075 96.9583 22.4843Z" fill="#FF422A"/>
<path d="M128.184 28.0255C125.637 24.9602 123.198 22.0002 120.866 19.1286C120.75 19.137 120.634 19.1455 120.514 19.1539C121.44 22.1181 122.367 25.0865 123.293 28.0508C120.035 28.1602 116.772 28.4508 113.514 28.876C111.393 20.177 109.268 11.4822 107.146 2.78325C107.953 2.55588 108.829 2.32009 109.776 2.08008C110.583 1.87798 111.496 1.65903 112.509 1.44008C113.522 1.22113 114.593 1.00639 115.714 0.816918C117.33 0.539022 118.807 0.585338 120.171 0.930603C121.536 1.27587 122.776 1.86956 123.892 2.6864C125.009 3.50325 126.005 4.53063 126.869 5.75169C127.734 6.97275 128.461 8.3117 129.028 9.76013C129.607 11.2338 129.937 12.4591 130.012 13.4275C130.086 14.3959 130.045 15.1749 129.892 15.7644C129.714 16.4549 129.412 16.9981 128.995 17.3939C132.307 21.1118 135.796 25.0276 139.46 29.1834C135.71 28.4802 131.947 28.1181 128.184 28.0255ZM119.328 12.0844C119.898 12.0254 120.303 11.7896 120.543 11.3601C120.783 10.9307 120.804 10.4296 120.609 9.85276C120.419 9.28013 120.072 8.80855 119.58 8.44644C119.088 8.08433 118.567 7.93696 118.021 8.00433C117.703 8.04223 117.388 8.08433 117.07 8.13065C117.492 9.48645 117.918 10.838 118.339 12.1896C118.67 12.1517 118.997 12.118 119.328 12.0844Z" fill="#FF422A"/>
<path d="M158.356 23.9623C159.7 26.6023 160.634 28.8044 161.131 30.5391C161.627 32.2781 161.648 33.4865 161.18 34.2149C160.717 34.9476 159.737 35.1497 158.261 34.9265C156.785 34.7076 154.767 34.0002 152.262 32.9602C150.756 32.337 149.326 31.8149 147.974 31.3644C146.622 30.9139 145.414 30.5644 144.364 30.2823C143.161 29.9623 141.991 29.6044 140.866 29.2044C136.814 19.4738 132.77 9.7348 128.722 0C129.549 0.0505266 130.438 0.122106 131.381 0.23158C132.208 0.328423 133.155 0.45895 134.217 0.652636C135.28 0.846321 136.405 1.08632 137.587 1.3979C139.555 1.9158 141.461 2.89265 143.339 4.29055C145.216 5.68846 147.039 7.44005 148.813 9.48216C150.587 11.5243 152.286 13.8106 153.903 16.2738C155.516 18.7412 157.012 21.3222 158.356 23.9623ZM147.73 23.2254C149.065 23.7265 149.872 23.6759 150.12 22.9854C150.372 22.2991 149.971 20.8843 148.941 18.7412C147.912 16.598 146.804 14.8675 145.646 13.5959C144.488 12.3243 143.31 11.4822 142.094 11.099C141.668 10.9643 141.238 10.8338 140.812 10.7116C142.648 14.7159 144.488 18.7201 146.324 22.7243C146.795 22.8801 147.263 23.0486 147.73 23.2254Z" fill="#FF422A"/>
</svg>
