<?xml version="1.0" encoding="UTF-8"?>
<svg width="60px" height="40px" viewBox="0 0 60 40" version="1.1" xmlns="http://www.w3.org/2000/svg" xmlns:xlink="http://www.w3.org/1999/xlink">
    <!-- Generator: Sketch 52.2 (67145) - http://www.bohemiancoding.com/sketch -->
    <title>Flags / Rectangle / sl</title>
    <desc>Created with Sketch.</desc>
    <g id="Flags-/-Rectangle-/-sl" stroke="none" stroke-width="1" fill="none" fill-rule="evenodd">
        <g id="004-slovenia">
            <rect id="Rectangle" fill="#F0F0F0" x="0" y="0.0394152047" width="60" height="39.9211696"></rect>
            <rect id="Rectangle" fill="#0052B4" x="0" y="13.3464327" width="60" height="13.3070175"></rect>
            <rect id="Rectangle" fill="#D80027" x="0" y="26.6535673" width="60" height="13.3070175"></rect>
            <path d="M27.3757031,13.057193 L27.3757031,14.7925146 C27.3757031,18.7785965 22.1582813,19.9997661 22.1582813,19.9997661 C22.1582813,19.9997661 16.9408594,18.7787135 16.9408594,14.7925146 L16.9408594,13.057193 L16.9238672,7.88900585 L27.3585938,7.85789474 L27.3757031,13.057193 Z" id="Path" fill="#F0F0F0"></path>
            <path d="M27.3757031,13.057193 L27.3757031,14.7925146 C27.3757031,18.7785965 22.1582813,19.9997661 22.1582813,19.9997661 C22.1582813,19.9997661 16.9408594,18.7787135 16.9408594,14.7925146 L16.9408594,13.057193 L16.9238672,7.88900585 L27.3585938,7.85789474 L27.3757031,13.057193 Z" id="Path" fill="#0052B4"></path>
            <path d="M27.3757031,13.057193 L27.3757031,14.7925146 C27.3757031,18.7785965 22.1582812,19.9997661 22.1582812,19.9997661 C22.1582812,19.9997661 16.9408594,18.7787135 16.9408594,14.7925146 L16.9408594,13.057193 L18.6808594,14.7925146 L22.1582813,12.1888889 L25.6369922,14.7925146 L27.3757031,13.057193 Z" id="Path" fill="#F0F0F0"></path>
        </g>
    </g>
</svg>