<?xml version="1.0" encoding="UTF-8"?>
<svg width="60px" height="40px" viewBox="0 0 60 40" version="1.1" xmlns="http://www.w3.org/2000/svg" xmlns:xlink="http://www.w3.org/1999/xlink">
    <!-- Generator: Sketch 52.2 (67145) - http://www.bohemiancoding.com/sketch -->
    <title>Flags / Rectangle / sk</title>
    <desc>Created with Sketch.</desc>
    <g id="Flags-/-Rectangle-/-sk" stroke="none" stroke-width="1" fill="none" fill-rule="evenodd">
        <g id="045-slovakia">
            <rect id="Rectangle" fill="#F0F0F0" x="0" y="0.0394152047" width="60" height="39.9211696"></rect>
            <rect id="Rectangle" fill="#0052B4" x="0" y="13.0574269" width="60" height="13.8850292"></rect>
            <rect id="Rectangle" fill="#D80027" x="0" y="26.9425731" width="60" height="13.0180117"></rect>
            <path d="M15.1720312,11.3215205 L15.1720312,21.2789474 C15.1720312,26.9431579 22.5861328,28.6785965 22.5861328,28.6785965 C22.5861328,28.6785965 30,26.942924 30,21.2789474 L30,11.3215205 L15.1720312,11.3215205 Z" id="Path" fill="#F0F0F0"></path>
            <path d="M17.1241406,11.6133333 L17.1241406,21.197076 C17.1241406,21.837076 17.2665234,22.4415205 17.5487109,23.0081871 C20.3483203,23.0081871 24.5329687,23.0081871 27.6233203,23.0081871 C27.9055078,22.4416374 28.0478906,21.837193 28.0478906,21.197076 L28.0478906,11.6133333 L17.1241406,11.6133333 Z" id="Path" fill="#D80027"></path>
            <polygon id="Path" fill="#F0F0F0" points="25.9337109 18.2955556 23.4229687 18.2955556 23.4229687 16.6250292 25.096875 16.6250292 25.096875 14.9545029 23.4229687 14.9545029 23.4229687 13.2838596 21.7491797 13.2838596 21.7491797 14.9545029 20.0755078 14.9545029 20.0755078 16.6250292 21.7491797 16.6250292 21.7491797 18.2955556 19.2383203 18.2955556 19.2383203 19.9661988 21.7491797 19.9661988 21.7491797 21.6367251 23.4229687 21.6367251 23.4229687 19.9661988 25.9337109 19.9661988"></polygon>
            <path d="M19.831875,25.340117 C20.9104688,26.0164912 22.0185938,26.4094737 22.5860156,26.5840936 C23.1534375,26.4093567 24.2615625,26.0166082 25.3401563,25.340117 C26.4278906,24.6578947 27.1905469,23.8774269 27.6234375,23.0080702 C27.1458984,22.6708772 26.5632422,22.4720468 25.9338281,22.4720468 C25.7046094,22.4720468 25.4819531,22.4991813 25.2679688,22.5488889 C24.8143359,21.520117 23.7846094,20.8015205 22.58625,20.8015205 C21.3877734,20.8015205 20.3581641,21.520117 19.9045313,22.5488889 C19.6904297,22.4991813 19.4676563,22.4720468 19.2386719,22.4720468 C18.6091406,22.4720468 18.0264844,22.6709942 17.5490625,23.0080702 C17.9816016,23.8774269 18.7441406,24.6578947 19.831875,25.340117 Z" id="Path" fill="#0052B4"></path>
        </g>
    </g>
</svg>