<svg width="40" height="40" viewBox="0 0 40 40" fill="none" xmlns="http://www.w3.org/2000/svg">
<mask id="mask0" mask-type="alpha" maskUnits="userSpaceOnUse" x="0" y="0" width="40" height="40">
<rect width="40" height="40" fill="black"/>
</mask>
<g mask="url(#mask0)">
<path d="M25.8793 4H12.1207C7.64288 4 4 7.64288 4 12.1207V25.8795C4 30.3571 7.64288 34 12.1207 34H25.8795C30.3571 34 34 30.3571 34 25.8795V12.1207C34 7.64288 30.3571 4 25.8793 4V4ZM19 27.2029C14.4768 27.2029 10.7971 23.5232 10.7971 19C10.7971 14.4768 14.4768 10.7971 19 10.7971C23.5232 10.7971 27.2029 14.4768 27.2029 19C27.2029 23.5232 23.5232 27.2029 19 27.2029ZM27.399 12.7316C26.0624 12.7316 24.9752 11.6444 24.9752 10.3078C24.9752 8.97108 26.0624 7.88367 27.399 7.88367C28.7357 7.88367 29.8231 8.97108 29.8231 10.3078C29.8231 11.6444 28.7357 12.7316 27.399 12.7316Z" fill="white"/>
<path d="M18.9998 12.5557C15.4467 12.5557 12.5557 15.4464 12.5557 18.9998C12.5557 22.553 15.4467 25.444 18.9998 25.444C22.5532 25.444 25.444 22.553 25.444 18.9998C25.444 15.4464 22.5532 12.5557 18.9998 12.5557Z" fill="white"/>
<path d="M27.3985 9.64282C27.0319 9.64282 26.7334 9.94128 26.7334 10.308C26.7334 10.6746 27.0319 10.9731 27.3985 10.9731C27.7654 10.9731 28.0639 10.6749 28.0639 10.308C28.0639 9.94106 27.7654 9.64282 27.3985 9.64282Z" fill="white"/>
</g>
</svg>
