<svg width="40" height="40" viewBox="0 0 40 40" fill="none" xmlns="http://www.w3.org/2000/svg">
<mask id="mask0" mask-type="alpha" maskUnits="userSpaceOnUse" x="0" y="0" width="40" height="40">
<rect width="40" height="40" fill="black"/>
</mask>
<g mask="url(#mask0)">
<path d="M37.2789 10.9119C36.8756 9.38223 35.6934 8.1764 34.1942 7.76451C31.4553 7 20.4996 7 20.4996 7C20.4996 7 9.54435 7 6.80549 7.73552C5.33512 8.14698 4.12409 9.38245 3.72077 10.9119C3 13.7058 3 19.5 3 19.5C3 19.5 3 25.3234 3.72077 28.0881C4.12451 29.6176 5.30628 30.8234 6.8057 31.2353C9.57319 32 20.5 32 20.5 32C20.5 32 31.4553 32 34.1942 31.2645C35.6936 30.8528 36.8756 29.647 37.2793 28.1175C37.9999 25.3234 37.9999 19.5294 37.9999 19.5294C37.9999 19.5294 38.0287 13.7058 37.2789 10.9119ZM17.0116 24.8529V14.1471L26.1217 19.5L17.0116 24.8529Z" fill="white"/>
</g>
</svg>
