<svg width="40" height="40" viewBox="0 0 40 40" fill="none" xmlns="http://www.w3.org/2000/svg">
<mask id="mask0" mask-type="alpha" maskUnits="userSpaceOnUse" x="0" y="0" width="40" height="40">
<rect width="40" height="40" fill="black"/>
</mask>
<g mask="url(#mask0)">
<path d="M35 9.078C33.8844 9.6 32.6956 9.946 31.4562 10.114C32.7312 9.302 33.7044 8.026 34.1619 6.488C32.9731 7.244 31.6606 7.778 30.2619 8.076C29.1331 6.794 27.5244 6 25.7694 6C22.3644 6 19.6231 8.948 19.6231 12.562C19.6231 13.082 19.6644 13.582 19.7656 14.058C14.6525 13.792 10.1281 11.178 7.08875 7.196C6.55812 8.178 6.24688 9.302 6.24688 10.512C6.24688 12.784 7.34375 14.798 8.97875 15.964C7.99062 15.944 7.02125 15.638 6.2 15.156C6.2 15.176 6.2 15.202 6.2 15.228C6.2 18.416 8.33187 21.064 11.1275 21.674C10.6269 21.82 10.0813 21.89 9.515 21.89C9.12125 21.89 8.72375 21.866 8.35062 21.778C9.1475 24.376 11.4088 26.286 14.0975 26.348C12.005 28.094 9.34812 29.146 6.47188 29.146C5.9675 29.146 5.48375 29.122 5 29.056C7.72438 30.93 10.9531 32 14.435 32C25.7525 32 31.94 22 31.94 13.332C31.94 13.042 31.9306 12.762 31.9175 12.484C33.1381 11.56 34.1637 10.406 35 9.078Z" fill="white"/>
</g>
</svg>
